<svg width="309" height="376" viewBox="0 0 309 376" fill="none" xmlns="http://www.w3.org/2000/svg">
<path d="M178.011 33.3809H130.672V375.007H178.011V33.3809Z" fill="#C6C6C6"/>
<path d="M12.4345 53.6681H296.251C302.795 53.6681 308.031 48.4325 308.031 41.8879V24.872C308.031 18.3275 302.795 13.0918 296.251 13.0918H12.4345C5.88995 13.0918 0.654297 18.3275 0.654297 24.872V41.8879C0.654297 48.4325 5.88995 53.6681 12.4345 53.6681Z" fill="#5DBFCF"/>
<path d="M123.471 66.9728H185.208C195.461 66.9728 203.751 58.683 203.751 48.4298V18.543C203.751 8.28979 195.461 0 185.208 0H123.471C113.218 0 104.928 8.28979 104.928 18.543V48.4298C104.928 58.683 113.218 66.9728 123.471 66.9728Z" fill="#229BB0"/>
</svg>
