<svg width="525" height="473" viewBox="0 0 525 473" fill="none" xmlns="http://www.w3.org/2000/svg">
<path d="M326.138 472.566H6.54457C2.83598 472.566 0 469.512 0 466.021V450.969C0 438.752 9.81686 428.936 22.0334 428.936H310.431C322.647 428.936 332.464 438.752 332.464 450.969V466.021C332.682 469.73 329.628 472.566 326.138 472.566Z" fill="#898989"/>
<path d="M192.409 163.008H140.271C129.582 163.008 120.855 171.734 120.855 182.423V428.936H211.607V182.423C211.825 171.734 203.099 163.008 192.409 163.008Z" fill="#898989"/>
<path d="M211.826 244.812H371.732C393.329 244.812 410.781 227.36 410.781 205.763V73.3442C410.781 51.7471 428.233 34.2949 449.83 34.2949H524.22" stroke="#5DBFCF" stroke-width="29.761" stroke-miterlimit="10"/>
<path d="M222.734 278.41H211.826V211.219H222.734C231.46 211.219 238.441 218.2 238.441 226.926V262.703C238.441 271.429 231.46 278.41 222.734 278.41Z" fill="#229BB0"/>
<path d="M513.31 0.701172H524.218V67.8921H513.31C504.584 67.8921 497.604 60.9112 497.604 52.1851V16.4081C497.604 7.68204 504.584 0.701172 513.31 0.701172Z" fill="#229BB0"/>
</svg>
