<svg width="3300" height="2200" viewBox="0 0 3300 2200" fill="none" xmlns="http://www.w3.org/2000/svg">
<g id="archivebox 3">
<g id="Notes">
<path id="artboard" d="M3300 0H0V2200H3300V0Z" fill="white"/>
<path id="Vector" d="M263 292H3036" stroke="black" stroke-width="0.5"/>
<text id="Weight/Scale Variations" fill="black" xml:space="preserve" style="white-space: pre" font-family="Roboto" font-size="12" font-weight="bold" letter-spacing="0em"><tspan x="263" y="321.102">Weight/Scale Variations</tspan></text>
<text id="Ultralight" fill="black" xml:space="preserve" style="white-space: pre" font-family="Roboto" font-size="12" letter-spacing="0em"><tspan x="535.211" y="321.102">Ultralight</tspan></text>
<text id="Thin" fill="black" xml:space="preserve" style="white-space: pre" font-family="Roboto" font-size="12" letter-spacing="0em"><tspan x="844.422" y="321.102">Thin</tspan></text>
<text id="Light" fill="black" xml:space="preserve" style="white-space: pre" font-family="Roboto" font-size="12" letter-spacing="0em"><tspan x="1139.63" y="321.102">Light</tspan></text>
<text id="Regular" fill="black" xml:space="preserve" style="white-space: pre" font-family="Roboto" font-size="12" letter-spacing="0em"><tspan x="1429.34" y="321.102">Regular</tspan></text>
<text id="Medium" fill="black" xml:space="preserve" style="white-space: pre" font-family="Roboto" font-size="12" letter-spacing="0em"><tspan x="1724.56" y="321.102">Medium</tspan></text>
<text id="Semibold" fill="black" xml:space="preserve" style="white-space: pre" font-family="Roboto" font-size="12" letter-spacing="0em"><tspan x="2017.77" y="321.102">Semibold</tspan></text>
<text id="Bold" fill="black" xml:space="preserve" style="white-space: pre" font-family="Roboto" font-size="12" letter-spacing="0em"><tspan x="2327.48" y="321.102">Bold</tspan></text>
<text id="Heavy" fill="black" xml:space="preserve" style="white-space: pre" font-family="Roboto" font-size="12" letter-spacing="0em"><tspan x="2620.19" y="321.102">Heavy</tspan></text>
<text id="Black" fill="black" xml:space="preserve" style="white-space: pre" font-family="Roboto" font-size="12" letter-spacing="0em"><tspan x="2918.4" y="321.102">Black</tspan></text>
<path id="Vector_2" d="M263 1903H3036" stroke="black" stroke-width="0.5"/>
<g id="Group">
<path id="Vector_3" d="M272.248 1933.83C276.555 1933.83 280.139 1930.26 280.139 1925.95C280.139 1921.64 276.545 1918.07 272.238 1918.07C267.941 1918.07 264.367 1921.64 264.367 1925.95C264.367 1930.26 267.951 1933.83 272.248 1933.83ZM272.248 1932.35C268.703 1932.35 265.871 1929.5 265.871 1925.95C265.871 1922.39 268.693 1919.55 272.238 1919.55C275.793 1919.55 278.635 1922.39 278.644 1925.95C278.654 1929.5 275.803 1932.35 272.248 1932.35ZM269.396 1926.68H271.506V1928.8C271.506 1929.24 271.799 1929.54 272.229 1929.54C272.678 1929.54 272.971 1929.24 272.971 1928.8V1926.68H275.1C275.539 1926.68 275.842 1926.39 275.842 1925.96C275.842 1925.52 275.539 1925.22 275.1 1925.22H272.971V1923.11C272.971 1922.66 272.678 1922.36 272.229 1922.36C271.799 1922.36 271.506 1922.66 271.506 1923.11V1925.22H269.396C268.947 1925.22 268.645 1925.52 268.645 1925.96C268.645 1926.39 268.947 1926.68 269.396 1926.68Z" fill="black"/>
</g>
<g id="Group_2">
<path id="Vector_4" d="M293.215 1935.91C298.664 1935.91 303.176 1931.39 303.176 1925.95C303.176 1920.5 298.654 1915.99 293.205 1915.99C287.766 1915.99 283.254 1920.5 283.254 1925.95C283.254 1931.39 287.775 1935.91 293.215 1935.91ZM293.215 1934.25C288.605 1934.25 284.924 1930.56 284.924 1925.95C284.924 1921.34 288.596 1917.65 293.205 1917.65C297.814 1917.65 301.506 1921.34 301.516 1925.95C301.525 1930.56 297.824 1934.25 293.215 1934.25ZM289.494 1926.77H292.385V1929.68C292.385 1930.17 292.717 1930.5 293.195 1930.5C293.684 1930.5 294.025 1930.17 294.025 1929.68V1926.77H296.936C297.424 1926.77 297.756 1926.44 297.756 1925.96C297.756 1925.47 297.424 1925.13 296.936 1925.13H294.025V1922.24C294.025 1921.73 293.684 1921.4 293.195 1921.4C292.717 1921.4 292.385 1921.74 292.385 1922.24V1925.13H289.494C288.986 1925.13 288.654 1925.47 288.654 1925.96C288.654 1926.44 288.996 1926.77 289.494 1926.77Z" fill="black"/>
</g>
<g id="Group_3">
<path id="Vector_5" d="M319.895 1938.66C326.857 1938.66 332.619 1932.9 332.619 1925.95C332.619 1918.99 326.848 1913.22 319.885 1913.22C312.932 1913.22 307.18 1918.99 307.18 1925.95C307.18 1932.9 312.941 1938.66 319.895 1938.66ZM319.895 1936.85C313.859 1936.85 309.006 1931.98 309.006 1925.95C309.006 1919.9 313.85 1915.05 319.885 1915.05C325.93 1915.05 330.783 1919.9 330.793 1925.95C330.803 1931.98 325.939 1936.85 319.895 1936.85ZM314.982 1926.86H318.986V1930.87C318.986 1931.41 319.357 1931.78 319.875 1931.78C320.412 1931.78 320.783 1931.41 320.783 1930.87V1926.86H324.807C325.334 1926.86 325.715 1926.49 325.715 1925.97C325.715 1925.43 325.344 1925.05 324.807 1925.05H320.783V1921.05C320.783 1920.49 320.412 1920.12 319.875 1920.12C319.357 1920.12 318.986 1920.5 318.986 1921.05V1925.05H314.982C314.426 1925.05 314.055 1925.43 314.055 1925.97C314.055 1926.49 314.436 1926.86 314.982 1926.86Z" fill="black"/>
</g>
<text id="Design Variations" fill="black" xml:space="preserve" style="white-space: pre" font-family="Roboto" font-size="12" font-weight="bold" letter-spacing="0em"><tspan x="263" y="1952.1">Design Variations</tspan></text>
<text id="Symbols are supported in up to nine weights and three scales." fill="black" xml:space="preserve" style="white-space: pre" font-family="Roboto" font-size="12" letter-spacing="0em"><tspan x="263" y="1970.1">Symbols are supported in up to nine weights and three scales.</tspan></text>
<text id="For optimal layout with text and other symbols, vertically align" fill="black" xml:space="preserve" style="white-space: pre" font-family="Roboto" font-size="12" letter-spacing="0em"><tspan x="263" y="1988.1">For optimal layout with text and other symbols, vertically align</tspan></text>
<text id="symbols with the adjacent text." fill="black" xml:space="preserve" style="white-space: pre" font-family="Roboto" font-size="12" letter-spacing="0em"><tspan x="263" y="2006.1">symbols with the adjacent text.</tspan></text>
<path id="Vector_6" d="M776 1919V1933" stroke="#00AEEF" stroke-width="0.5"/>
<g id="Group_4">
<path id="Vector_7" d="M779.311 1933.13C779.828 1933.13 780.082 1932.93 780.268 1932.39L781.527 1928.94H787.289L788.549 1932.39C788.734 1932.93 788.988 1933.13 789.496 1933.13C790.014 1933.13 790.346 1932.81 790.346 1932.33C790.346 1932.16 790.316 1932.01 790.238 1931.8L785.658 1919.61C785.434 1919.01 785.033 1918.71 784.408 1918.71C783.803 1918.71 783.393 1919.01 783.178 1919.6L778.598 1931.81C778.52 1932.02 778.49 1932.17 778.49 1932.34C778.49 1932.82 778.803 1933.13 779.311 1933.13ZM782.006 1927.46L784.379 1920.89H784.428L786.801 1927.46H782.006Z" fill="black"/>
</g>
<path id="Vector_8" d="M792.836 1919V1933" stroke="#00AEEF" stroke-width="0.5"/>
<text id="Margins" fill="black" xml:space="preserve" style="white-space: pre" font-family="Roboto" font-size="12" font-weight="bold" letter-spacing="0em"><tspan x="776" y="1952.1">Margins</tspan></text>
<text id="Leading and trailing margins on the left and right side of each symbol" fill="black" xml:space="preserve" style="white-space: pre" font-family="Roboto" font-size="12" letter-spacing="0em"><tspan x="776" y="1970.1">Leading and trailing margins on the left and right side of each symbol</tspan></text>
<text id="can be adjusted by modifying the x-location of the margin guidelines." fill="black" xml:space="preserve" style="white-space: pre" font-family="Roboto" font-size="12" letter-spacing="0em"><tspan x="776" y="1988.1">can be adjusted by modifying the x-location of the margin guidelines.</tspan></text>
<text id="Modifications are automatically applied proportionally to all" fill="black" xml:space="preserve" style="white-space: pre" font-family="Roboto" font-size="12" letter-spacing="0em"><tspan x="776" y="2006.1">Modifications are automatically applied proportionally to all</tspan></text>
<text id="scales and weights." fill="black" xml:space="preserve" style="white-space: pre" font-family="Roboto" font-size="12" letter-spacing="0em"><tspan x="776" y="2024.1">scales and weights.</tspan></text>
<g id="Group_5">
<path id="Vector_9" d="M1291.84 1934.87L1293.54 1936.57C1294.4 1937.44 1295.39 1937.38 1296.31 1936.36L1306.49 1925.15C1306.75 1925.24 1307.03 1925.22 1307.34 1925.16L1308.4 1924.96L1309.07 1925.64L1309.03 1926.19C1308.99 1926.69 1309.12 1927.07 1309.61 1927.55L1310.37 1928.29C1310.85 1928.77 1311.46 1928.8 1311.93 1928.33L1314.84 1925.41C1315.31 1924.94 1315.29 1924.35 1314.81 1923.87L1314.04 1923.11C1313.56 1922.63 1313.19 1922.47 1312.71 1922.51L1312.13 1922.56L1311.49 1921.93L1311.73 1920.8C1311.86 1920.24 1311.71 1919.8 1311.12 1919.21L1308.92 1917.02C1305.58 1913.7 1301.15 1913.78 1298.26 1916.67C1297.84 1917.08 1297.81 1917.66 1298.04 1918.05C1298.28 1918.41 1298.74 1918.64 1299.38 1918.48C1300.85 1918.14 1302.37 1918.08 1303.79 1919.02L1303.21 1920.47C1303.01 1920.95 1302.98 1921.35 1303.11 1921.71L1292.05 1932.1C1291.06 1933.02 1290.98 1934 1291.84 1934.87ZM1299.75 1917.04C1302.18 1915.27 1305.47 1915.57 1307.7 1917.8L1310.13 1920.21C1310.37 1920.44 1310.41 1920.63 1310.34 1920.97L1310.02 1922.45L1311.52 1923.94L1312.51 1923.88C1312.76 1923.87 1312.84 1923.89 1313.03 1924.08L1313.61 1924.66L1311.17 1927.1L1310.59 1926.53C1310.4 1926.33 1310.37 1926.25 1310.38 1925.99L1310.45 1925.01L1308.95 1923.53L1307.43 1923.78C1307.11 1923.85 1306.96 1923.82 1306.71 1923.59L1304.71 1921.58C1304.46 1921.35 1304.43 1921.18 1304.59 1920.81L1305.46 1918.72C1303.9 1917.27 1301.87 1916.64 1299.84 1917.24C1299.68 1917.28 1299.62 1917.15 1299.75 1917.04ZM1294.27 1935.3L1293.1 1934.14C1292.63 1933.68 1292.74 1933.34 1293.14 1932.98L1303.95 1922.8L1305.42 1924.29L1295.43 1935.28C1295.07 1935.68 1294.74 1935.77 1294.27 1935.3Z" fill="black"/>
</g>
<text id="Exporting" fill="black" xml:space="preserve" style="white-space: pre" font-family="Roboto" font-size="12" font-weight="bold" letter-spacing="0em"><tspan x="1289" y="1952.1">Exporting</tspan></text>
<text id="Symbols should be outlined when exporting to ensure the" fill="black" xml:space="preserve" style="white-space: pre" font-family="Roboto" font-size="12" letter-spacing="0em"><tspan x="1289" y="1970.1">Symbols should be outlined when exporting to ensure the</tspan></text>
<text id="design is preserved when submitting to Xcode." fill="black" xml:space="preserve" style="white-space: pre" font-family="Roboto" font-size="12" letter-spacing="0em"><tspan x="1289" y="1988.1">design is preserved when submitting to Xcode.</tspan></text>
<text id="template-version" fill="black" xml:space="preserve" style="white-space: pre" font-family="Roboto" font-size="12" letter-spacing="0em"><tspan x="2958" y="1932.1">Template v.2.0</tspan></text>
<text id="Requires Xcode 12 or greater" fill="black" xml:space="preserve" style="white-space: pre" font-family="Roboto" font-size="12" letter-spacing="0em"><tspan x="2881" y="1950.1">Requires Xcode 12 or greater</tspan></text>
<text id="Generated from archivebox" fill="black" xml:space="preserve" style="white-space: pre" font-family="Roboto" font-size="12" letter-spacing="0em"><tspan x="2891" y="1968.1">Generated from archivebox</tspan></text>
<text id="Typeset at 100 points" fill="black" xml:space="preserve" style="white-space: pre" font-family="Roboto" font-size="12" letter-spacing="0em"><tspan x="2921" y="1986.1">Typeset at 100 points</tspan></text>
<text id="Small" fill="black" xml:space="preserve" style="white-space: pre" font-family="Roboto" font-size="12" letter-spacing="0em"><tspan x="263" y="725.102">Small</tspan></text>
<text id="Medium_2" fill="black" xml:space="preserve" style="white-space: pre" font-family="Roboto" font-size="12" letter-spacing="0em"><tspan x="263" y="1155.1">Medium</tspan></text>
<text id="Large" fill="black" xml:space="preserve" style="white-space: pre" font-family="Roboto" font-size="12" letter-spacing="0em"><tspan x="263" y="1585.1">Large</tspan></text>
</g>
<g id="Guides">
<g id="H-reference">
<path id="Vector_10" d="M339.977 696H342.662L351.988 671.537H384.752L394.127 696H396.764L369.615 625.541H367.125L339.977 696ZM368.346 628.861H368.443L383.873 669.291H352.867L368.346 628.861Z" fill="#27AAE1"/>
</g>
<path id="Baseline-S" d="M263 696H3036" stroke="#27AAE1" stroke-width="0.5"/>
<path id="Capline-S" d="M263 625.541H3036" stroke="#27AAE1" stroke-width="0.5"/>
<g id="H-reference_2">
<path id="Vector_11" d="M339.977 1126H342.662L351.988 1101.54H384.752L394.127 1126H396.764L369.615 1055.54H367.125L339.977 1126ZM368.346 1058.86H368.443L383.873 1099.29H352.867L368.346 1058.86Z" fill="#27AAE1"/>
</g>
<path id="Baseline-M" d="M263 1126H3036" stroke="#27AAE1" stroke-width="0.5"/>
<path id="Capline-M" d="M263 1055.54H3036" stroke="#27AAE1" stroke-width="0.5"/>
<g id="H-reference_3">
<path id="Vector_12" d="M339.977 1556H342.662L351.988 1531.54H384.752L394.127 1556H396.764L369.615 1485.54H367.125L339.977 1556ZM368.346 1488.86H368.443L383.873 1529.29H352.867L368.346 1488.86Z" fill="#27AAE1"/>
</g>
<path id="Baseline-L" d="M263 1556H3036" stroke="#27AAE1" stroke-width="0.5"/>
<path id="Capline-L" d="M263 1485.54H3036" stroke="#27AAE1" stroke-width="0.5"/>
<path id="left-margin" d="M1388.59 1030.79V1150.12" stroke="#00AEEF" stroke-width="0.5"/>
<path id="right-margin" d="M1511.1 1030.79V1150.12" stroke="#00AEEF" stroke-width="0.5"/>
</g>
<g id="Symbols">
<g id="Black-L">
<path id="Vector_13" d="M2899.98 1582.51H2968.83C2983.82 1582.51 2992.51 1573.92 2992.51 1558.98V1502.88C2998.22 1499.8 3001.59 1493.79 3001.59 1486.08V1478.12C3001.59 1466.79 2994.27 1459.12 2982.84 1459.12H2886.06C2874.83 1459.12 2867.21 1466.79 2867.21 1478.12V1486.08C2867.21 1493.74 2870.63 1499.75 2876.35 1502.83V1558.98C2876.35 1573.92 2884.99 1582.51 2899.98 1582.51ZM2888.11 1487.1C2886.11 1487.1 2884.89 1485.88 2884.89 1483.83V1480.37C2884.89 1478.36 2886.11 1477.14 2888.11 1477.14H2980.69C2982.74 1477.14 2983.96 1478.36 2983.96 1480.37V1483.83C2983.96 1485.88 2982.74 1487.1 2980.69 1487.1H2888.11ZM2902.62 1562.49C2898.61 1562.49 2896.56 1560.69 2896.56 1556.44V1505.12H2972.24V1556.44C2972.24 1560.69 2970.19 1562.49 2966.19 1562.49H2902.62ZM2915.75 1531.93H2953.15C2957.25 1531.93 2960.43 1528.8 2960.43 1524.6V1522.55C2960.43 1518.3 2957.3 1515.28 2953.15 1515.28H2915.75C2911.6 1515.28 2908.47 1518.3 2908.47 1522.55V1524.6C2908.47 1528.8 2911.65 1531.93 2915.75 1531.93Z" fill="black"/>
</g>
<g id="Heavy-L">
<path id="Vector_14" d="M2603.17 1581.49H2672.21C2686.47 1581.49 2694.62 1573.48 2694.62 1559.22V1501.51C2700.38 1498.87 2703.75 1493.21 2703.75 1485.79V1477.44C2703.75 1467.08 2697.21 1460.15 2686.76 1460.15H2588.67C2578.46 1460.15 2571.62 1467.08 2571.62 1477.44V1485.79C2571.62 1493.21 2575.04 1498.87 2580.76 1501.46V1559.22C2580.76 1573.48 2588.91 1581.49 2603.17 1581.49ZM2590.72 1487.4C2588.42 1487.4 2587.15 1486.08 2587.15 1483.78V1479.44C2587.15 1477.14 2588.42 1475.82 2590.72 1475.82H2684.71C2687.01 1475.82 2688.23 1477.14 2688.23 1479.44V1483.78C2688.23 1486.08 2687.01 1487.4 2684.71 1487.4H2590.72ZM2605.17 1564.3C2600.63 1564.3 2598.29 1562.1 2598.29 1557.37V1503.07H2677.14V1557.37C2677.14 1562.1 2674.75 1564.3 2670.21 1564.3H2605.17ZM2618.45 1529.54H2657.03C2660.74 1529.54 2663.52 1526.75 2663.52 1522.89V1520.89C2663.52 1517.04 2660.79 1514.35 2657.03 1514.35H2618.45C2614.69 1514.35 2611.96 1517.04 2611.96 1520.89V1522.89C2611.96 1526.75 2614.74 1529.54 2618.45 1529.54Z" fill="black"/>
</g>
<g id="Bold-L">
<path id="Vector_15" d="M2306.33 1580.37H2375.57C2389.09 1580.37 2396.61 1572.94 2396.61 1559.47V1499.9C2402.42 1497.85 2405.79 1492.57 2405.79 1485.44V1476.65C2405.79 1467.43 2400.08 1461.27 2390.75 1461.27H2291.19C2282.11 1461.27 2276.15 1467.43 2276.15 1476.65V1485.44C2276.15 1492.52 2279.52 1497.8 2285.29 1499.85V1559.47C2285.29 1572.99 2292.85 1580.37 2306.33 1580.37ZM2293.24 1487.74C2290.61 1487.74 2289.34 1486.37 2289.34 1483.73V1478.36C2289.34 1475.73 2290.61 1474.36 2293.24 1474.36H2388.75C2391.34 1474.36 2392.61 1475.73 2392.61 1478.36V1483.73C2392.61 1486.37 2391.34 1487.74 2388.75 1487.74H2293.24ZM2307.65 1566.3C2302.47 1566.3 2299.74 1563.67 2299.74 1558.39V1500.82H2382.16V1558.39C2382.16 1563.67 2379.38 1566.3 2374.3 1566.3H2307.65ZM2321.12 1526.85H2360.87C2364.19 1526.85 2366.58 1524.41 2366.58 1520.99V1519.04C2366.58 1515.62 2364.24 1513.28 2360.87 1513.28H2321.12C2317.76 1513.28 2315.41 1515.62 2315.41 1519.04V1520.99C2315.41 1524.41 2317.8 1526.85 2321.12 1526.85Z" fill="black"/>
</g>
<g id="Semibold-L">
<path id="Vector_16" d="M2009.57 1579.58H2078.96C2091.9 1579.58 2099.03 1572.6 2099.03 1559.66V1498.68C2104.88 1497.06 2108.2 1492.08 2108.2 1485.2V1476.12C2108.2 1467.62 2103.13 1462.05 2094.58 1462.05H1993.95C1985.7 1462.05 1980.32 1467.62 1980.32 1476.12V1485.2C1980.32 1492.08 1983.69 1497.06 1989.5 1498.68V1559.66C1989.5 1572.6 1996.63 1579.58 2009.57 1579.58ZM1996 1487.98C1993.17 1487.98 1991.85 1486.52 1991.85 1483.73V1477.63C1991.85 1474.8 1993.17 1473.38 1996 1473.38H2092.58C2095.41 1473.38 2096.68 1474.8 2096.68 1477.63V1483.73C2096.68 1486.52 2095.41 1487.98 2092.58 1487.98H1996ZM2010.4 1567.67C2004.79 1567.67 2001.81 1564.74 2001.81 1559.12V1499.26H2086.72V1559.12C2086.72 1564.74 2083.64 1567.67 2078.13 1567.67H2010.4ZM2023.98 1524.95H2064.6C2067.63 1524.95 2069.78 1522.8 2069.78 1519.72V1517.72C2069.78 1514.64 2067.63 1512.54 2064.6 1512.54H2023.98C2020.95 1512.54 2018.85 1514.64 2018.85 1517.72V1519.72C2018.85 1522.8 2020.95 1524.95 2023.98 1524.95Z" fill="black"/>
</g>
<g id="Medium-L">
<path id="Vector_17" d="M1712.79 1579H1782.32C1794.82 1579 1801.66 1572.31 1801.66 1559.81V1497.7C1807.52 1496.43 1810.84 1491.74 1810.84 1485.05V1475.73C1810.84 1467.82 1806.25 1462.69 1798.24 1462.69H1696.87C1689.16 1462.69 1684.28 1467.82 1684.28 1475.73V1485.05C1684.28 1491.74 1687.6 1496.43 1693.45 1497.7V1559.81C1693.45 1572.36 1700.29 1579 1712.79 1579ZM1698.87 1488.13C1695.9 1488.13 1694.53 1486.66 1694.53 1483.69V1477.04C1694.53 1474.07 1695.9 1472.6 1698.87 1472.6H1796.24C1799.27 1472.6 1800.58 1474.07 1800.58 1477.04V1483.69C1800.58 1486.66 1799.27 1488.13 1796.24 1488.13H1698.87ZM1713.23 1568.7C1707.37 1568.7 1704.2 1565.57 1704.2 1559.66V1498.09H1790.92V1559.66C1790.92 1565.57 1787.64 1568.7 1781.88 1568.7H1713.23ZM1726.95 1523.58H1768.21C1771.04 1523.58 1772.95 1521.58 1772.95 1518.7V1516.79C1772.95 1513.86 1771.04 1511.96 1768.21 1511.96H1726.95C1724.12 1511.96 1722.21 1513.86 1722.21 1516.79V1518.7C1722.21 1521.58 1724.17 1523.58 1726.95 1523.58Z" fill="black"/>
</g>
<g id="Regular-L">
<path id="Vector_18" d="M1416 1578.22H1485.63C1497.64 1578.22 1504.09 1571.97 1504.09 1560V1496.38C1510 1495.6 1513.27 1491.25 1513.27 1484.81V1475.19C1513.27 1468.01 1509.26 1463.47 1502.04 1463.47H1399.64C1392.71 1463.47 1388.41 1468.01 1388.41 1475.19V1484.81C1388.41 1491.25 1391.69 1495.6 1397.59 1496.38V1560C1397.59 1572.02 1404.04 1578.22 1416 1578.22ZM1401.65 1488.37C1398.47 1488.37 1397.06 1486.86 1397.06 1483.64V1476.31C1397.06 1473.14 1398.47 1471.62 1401.65 1471.62H1500.08C1503.26 1471.62 1504.62 1473.14 1504.62 1476.31V1483.64C1504.62 1486.86 1503.26 1488.37 1500.08 1488.37H1401.65ZM1416 1570.06C1409.65 1570.06 1406.24 1566.64 1406.24 1560.35V1496.53H1495.4V1560.35C1495.4 1566.64 1491.88 1570.06 1485.68 1570.06H1416ZM1429.77 1521.72H1471.91C1474.45 1521.72 1476.11 1520.01 1476.11 1517.43V1515.52C1476.11 1512.88 1474.45 1511.27 1471.91 1511.27H1429.77C1427.28 1511.27 1425.62 1512.88 1425.62 1515.52V1517.43C1425.62 1520.01 1427.28 1521.72 1429.77 1521.72Z" fill="black"/>
</g>
<g id="Light-L">
<path id="Vector_19" d="M1118.98 1577.44H1189.29C1200.77 1577.44 1206.87 1571.33 1206.87 1559.96V1495.16C1212.58 1494.67 1215.8 1490.62 1215.8 1484.61V1474.95C1215.8 1468.5 1212.09 1464.3 1205.6 1464.3H1102.62C1096.37 1464.3 1092.46 1468.5 1092.46 1474.95V1484.61C1092.46 1490.62 1095.69 1494.67 1101.35 1495.16V1559.96C1101.35 1571.43 1107.5 1577.44 1118.98 1577.44ZM1103.89 1488.91C1100.67 1488.91 1099.11 1487.15 1099.11 1483.88V1475.63C1099.11 1472.41 1100.67 1470.6 1103.89 1470.6H1204.38C1207.6 1470.6 1209.16 1472.41 1209.16 1475.63V1483.88C1209.16 1487.15 1207.6 1488.91 1204.38 1488.91H1103.89ZM1119.03 1571.09C1111.8 1571.09 1107.99 1567.28 1107.99 1560.1V1495.21H1200.28V1560.1C1200.28 1567.28 1196.22 1571.09 1189.24 1571.09H1119.03ZM1132.7 1520.16H1175.57C1177.91 1520.16 1179.28 1518.65 1179.28 1516.25V1514.45C1179.28 1512.05 1177.91 1510.59 1175.57 1510.59H1132.7C1130.4 1510.59 1128.99 1512.05 1128.99 1514.45V1516.25C1128.99 1518.65 1130.4 1520.16 1132.7 1520.16Z" fill="black"/>
</g>
<g id="Thin-L">
<path id="Vector_20" d="M821.803 1576.36H892.994C903.785 1576.36 909.546 1570.5 909.546 1559.86V1493.5C914.771 1493.5 918.091 1489.84 918.091 1484.37V1474.6C918.091 1469.09 914.771 1465.42 909.253 1465.42H805.543C800.123 1465.42 796.754 1469.09 796.754 1474.6V1484.37C796.754 1489.74 799.977 1493.4 805.299 1493.5V1559.86C805.299 1570.65 811.012 1576.36 821.803 1576.36ZM805.836 1489.64C802.564 1489.64 800.66 1487.49 800.66 1484.22V1474.75C800.66 1471.43 802.564 1469.28 805.836 1469.28H909.009C912.281 1469.28 914.136 1471.43 914.136 1474.75V1484.22C914.136 1487.49 912.281 1489.64 909.009 1489.64H805.836ZM821.949 1572.5C813.6 1572.5 809.205 1568.11 809.205 1559.76V1493.5H905.591V1559.76C905.591 1568.11 900.953 1572.5 892.847 1572.5H821.949ZM835.523 1518.06H879.322C881.421 1518.06 882.447 1516.79 882.447 1514.69V1513.08C882.447 1510.98 881.421 1509.71 879.322 1509.71H835.523C833.424 1509.71 832.398 1510.98 832.398 1513.08V1514.69C832.398 1516.79 833.424 1518.06 835.523 1518.06Z" fill="black"/>
</g>
<g id="Ultralight-L">
<path id="Vector_21" d="M524.871 1575.78H596.502C606.951 1575.78 612.517 1570.06 612.517 1559.81V1492.62H612.761C617.742 1492.62 620.867 1489.25 620.867 1484.22V1474.41C620.867 1469.43 617.742 1466.01 612.761 1466.01H508.66C503.631 1466.01 500.555 1469.43 500.555 1474.41V1484.22C500.555 1489.25 503.68 1492.62 508.66 1492.62H508.904V1559.81C508.904 1570.26 514.422 1575.78 524.871 1575.78ZM508.416 1490.03C505.096 1490.03 503.094 1487.69 503.094 1484.37V1474.26C503.094 1470.94 505.096 1468.6 508.416 1468.6H613.006C616.277 1468.6 618.279 1470.94 618.279 1474.26V1484.37C618.279 1487.69 616.277 1490.03 613.006 1490.03H508.416ZM525.066 1573.19C516.082 1573.19 511.443 1568.55 511.443 1559.56V1492.62H609.929V1559.56C609.929 1568.55 604.949 1573.19 596.355 1573.19H525.066Z" fill="black"/>
<rect id="Rectangle 3" x="535.721" y="1511.7" width="49.9" height="2.6" rx="1.3" fill="black"/>
</g>
<g id="Black-M">
<path id="Vector_22" d="M2907.67 1139.57H2961.13C2973.39 1139.57 2980.66 1132.25 2980.66 1119.99V1078.05C2985.01 1075.22 2987.6 1070.29 2987.6 1064.23V1058.52C2987.6 1048.8 2980.96 1042.06 2971.14 1042.06H2897.71C2887.94 1042.06 2881.2 1048.8 2881.2 1058.52V1064.23C2881.2 1070.24 2883.79 1075.17 2888.09 1078V1119.99C2888.09 1132.25 2895.36 1139.57 2907.67 1139.57ZM2898.88 1064.57C2897.71 1064.57 2896.68 1063.55 2896.68 1062.33V1060.42C2896.68 1059.2 2897.71 1058.18 2898.88 1058.18H2969.87C2971.09 1058.18 2972.12 1059.2 2972.12 1060.42V1062.33C2972.12 1063.55 2971.09 1064.57 2969.87 1064.57H2898.88ZM2910.6 1121.26C2907.76 1121.26 2906.4 1120.14 2906.4 1117.06V1080.69H2962.4V1117.06C2962.4 1120.14 2961.04 1121.26 2958.2 1121.26H2910.6ZM2920.46 1101.83H2948.39C2951.95 1101.83 2954.74 1099.1 2954.74 1095.43V1093.82C2954.74 1090.16 2952 1087.43 2948.39 1087.43H2920.46C2916.85 1087.43 2914.11 1090.16 2914.11 1093.82V1095.43C2914.11 1099.1 2916.89 1101.83 2920.46 1101.83Z" fill="black"/>
</g>
<g id="Heavy-M">
<path id="Vector_23" d="M2610.93 1138.65H2664.45C2676.07 1138.65 2682.86 1131.91 2682.86 1120.29V1076.93C2687.25 1074.49 2689.84 1069.85 2689.84 1063.94V1057.84C2689.84 1049 2684.03 1042.94 2675.14 1042.94H2600.34C2591.55 1042.94 2585.54 1049 2585.54 1057.84V1063.94C2585.54 1069.8 2588.18 1074.44 2592.52 1076.88V1120.29C2592.52 1131.91 2599.31 1138.65 2610.93 1138.65ZM2601.7 1064.72C2600.19 1064.72 2599.21 1063.74 2599.21 1062.23V1059.54C2599.21 1058.03 2600.19 1057.01 2601.7 1057.01H2673.68C2675.19 1057.01 2676.17 1058.03 2676.17 1059.54V1062.23C2676.17 1063.74 2675.19 1064.72 2673.68 1064.72H2601.7ZM2613.18 1122.92C2609.96 1122.92 2608.34 1121.51 2608.34 1118.14V1078.78H2667.04V1118.14C2667.04 1121.51 2665.42 1122.92 2662.2 1122.92H2613.18ZM2623.29 1099.63H2652.19C2655.41 1099.63 2657.86 1097.14 2657.86 1093.87V1092.26C2657.86 1088.99 2655.46 1086.6 2652.19 1086.6H2623.29C2620.01 1086.6 2617.57 1088.99 2617.57 1092.26V1093.87C2617.57 1097.14 2620.06 1099.63 2623.29 1099.63Z" fill="black"/>
</g>
<g id="Bold-M">
<path id="Vector_24" d="M2314.2 1137.67H2367.76C2378.7 1137.67 2384.9 1131.52 2384.9 1120.63V1075.61C2389.35 1073.66 2391.98 1069.31 2391.98 1063.6V1057.05C2391.98 1049.19 2387.05 1043.97 2379.14 1043.97H2302.87C2295.16 1043.97 2289.98 1049.19 2289.98 1057.05V1063.6C2289.98 1069.31 2292.62 1073.61 2297.06 1075.56V1120.63C2297.06 1131.57 2303.26 1137.67 2314.2 1137.67ZM2304.48 1064.96C2302.63 1064.96 2301.65 1063.94 2301.65 1062.08V1058.57C2301.65 1056.71 2302.63 1055.69 2304.48 1055.69H2377.53C2379.34 1055.69 2380.31 1056.71 2380.31 1058.57V1062.08C2380.31 1063.94 2379.34 1064.96 2377.53 1064.96H2304.48ZM2315.66 1124.83C2312.05 1124.83 2310.15 1123.07 2310.15 1119.31V1076.68H2371.82V1119.31C2371.82 1123.07 2369.91 1124.83 2366.3 1124.83H2315.66ZM2325.97 1097.14H2356.04C2358.88 1097.14 2360.98 1095.04 2360.98 1092.11V1090.55C2360.98 1087.67 2358.88 1085.62 2356.04 1085.62H2325.97C2323.13 1085.62 2321.04 1087.67 2321.04 1090.55V1092.11C2321.04 1095.04 2323.13 1097.14 2325.97 1097.14Z" fill="black"/>
</g>
<g id="Semibold-M">
<path id="Vector_25" d="M2017.51 1136.99H2071.07C2081.47 1136.99 2087.33 1131.27 2087.33 1120.82V1074.58C2091.87 1073.02 2094.46 1068.92 2094.46 1063.4V1056.52C2094.46 1049.34 2090.12 1044.65 2082.94 1044.65H2005.64C1998.66 1044.65 1994.07 1049.34 1994.07 1056.52V1063.4C1994.07 1068.92 1996.71 1073.02 2001.25 1074.58V1120.82C2001.25 1131.27 2007.06 1136.99 2017.51 1136.99ZM2007.4 1065.11C2005.35 1065.11 2004.37 1064.09 2004.37 1062.04V1057.88C2004.37 1055.83 2005.35 1054.81 2007.4 1054.81H2081.18C2083.23 1054.81 2084.21 1055.83 2084.21 1057.88V1062.04C2084.21 1064.09 2083.23 1065.11 2081.18 1065.11H2007.4ZM2018.39 1126.1C2014.48 1126.1 2012.38 1124.14 2012.38 1120.14V1075.27H2076.15V1120.14C2076.15 1124.14 2074 1126.1 2070.14 1126.1H2018.39ZM2028.88 1095.38H2059.74C2062.28 1095.38 2064.14 1093.53 2064.14 1090.94V1089.38C2064.14 1086.74 2062.28 1084.94 2059.74 1084.94H2028.88C2026.3 1084.94 2024.49 1086.74 2024.49 1089.38V1090.94C2024.49 1093.53 2026.35 1095.38 2028.88 1095.38Z" fill="black"/>
</g>
<g id="Medium-M">
<path id="Vector_26" d="M1720.77 1136.45H1774.34C1784.45 1136.45 1789.96 1131.08 1789.96 1121.02V1073.75C1794.55 1072.53 1797.14 1068.63 1797.14 1063.21V1056.13C1797.14 1049.49 1793.28 1045.19 1786.59 1045.19H1708.57C1702.12 1045.19 1697.97 1049.49 1697.97 1056.13V1063.21C1697.97 1068.63 1700.56 1072.48 1705.2 1073.75V1121.02C1705.2 1131.08 1710.71 1136.45 1720.77 1136.45ZM1710.42 1065.21C1708.18 1065.21 1707.2 1064.18 1707.2 1061.94V1057.4C1707.2 1055.15 1708.18 1054.12 1710.42 1054.12H1784.79C1786.98 1054.12 1787.91 1055.15 1787.91 1057.4V1061.94C1787.91 1064.18 1786.98 1065.21 1784.79 1065.21H1710.42ZM1721.26 1127.12C1717.16 1127.12 1714.91 1124.93 1714.91 1120.78V1074.14H1780.2V1120.78C1780.2 1124.93 1777.95 1127.12 1773.9 1127.12H1721.26ZM1731.86 1094.12H1763.3C1765.65 1094.12 1767.31 1092.41 1767.31 1090.01V1088.45C1767.31 1086.06 1765.65 1084.45 1763.3 1084.45H1731.86C1729.51 1084.45 1727.85 1086.06 1727.85 1088.45V1090.01C1727.85 1092.41 1729.51 1094.12 1731.86 1094.12Z" fill="black"/>
</g>
<g id="Regular-M">
<path id="Vector_27" d="M1424.06 1135.77H1477.63C1487.25 1135.77 1492.37 1130.79 1492.37 1121.21V1072.58C1497.11 1071.8 1499.65 1068.24 1499.65 1063.01V1055.59C1499.65 1049.63 1496.38 1045.87 1490.37 1045.87H1411.32C1405.61 1045.87 1402.04 1049.63 1402.04 1055.59V1063.01C1402.04 1068.24 1404.58 1071.8 1409.32 1072.58V1121.21C1409.32 1130.83 1414.44 1135.77 1424.06 1135.77ZM1413.32 1065.36C1410.88 1065.36 1409.9 1064.33 1409.9 1061.89V1056.71C1409.9 1054.27 1410.88 1053.25 1413.32 1053.25H1488.42C1490.86 1053.25 1491.79 1054.27 1491.79 1056.71V1061.89C1491.79 1064.33 1490.86 1065.36 1488.42 1065.36H1413.32ZM1423.96 1128.39C1419.57 1128.39 1417.18 1126 1417.18 1121.61V1072.73H1484.51V1121.61C1484.51 1126 1482.07 1128.39 1477.72 1128.39H1423.96ZM1434.76 1092.41H1466.98C1469.03 1092.41 1470.5 1090.99 1470.5 1088.84V1087.28C1470.5 1085.13 1469.03 1083.76 1466.98 1083.76H1434.76C1432.71 1083.76 1431.29 1085.13 1431.29 1087.28V1088.84C1431.29 1090.99 1432.71 1092.41 1434.76 1092.41Z" fill="black"/>
</g>
<g id="Light-M">
<path id="Vector_28" d="M1127.06 1135.03H1181.21C1190.34 1135.03 1195.22 1130.25 1195.22 1121.17V1071.46C1199.76 1070.97 1202.25 1067.7 1202.25 1062.82V1055.35C1202.25 1050.02 1199.27 1046.61 1193.9 1046.61H1114.36C1109.23 1046.61 1106.01 1050.02 1106.01 1055.35V1062.82C1106.01 1067.7 1108.55 1070.97 1113.04 1071.46V1121.17C1113.04 1130.3 1117.93 1135.03 1127.06 1135.03ZM1115.68 1065.84C1113.19 1065.84 1112.07 1064.57 1112.07 1062.08V1056.08C1112.07 1053.59 1113.19 1052.37 1115.68 1052.37H1192.63C1195.12 1052.37 1196.25 1053.59 1196.25 1056.08V1062.08C1196.25 1064.57 1195.12 1065.84 1192.63 1065.84H1115.68ZM1127.06 1129.32C1121.88 1129.32 1119.1 1126.54 1119.1 1121.36V1071.56H1189.21V1121.36C1189.21 1126.54 1186.29 1129.32 1181.26 1129.32H1127.06ZM1137.7 1090.99H1170.61C1172.47 1090.99 1173.69 1089.72 1173.69 1087.77V1086.35C1173.69 1084.4 1172.47 1083.18 1170.61 1083.18H1137.7C1135.85 1083.18 1134.63 1084.4 1134.63 1086.35V1087.77C1134.63 1089.72 1135.85 1090.99 1137.7 1090.99Z" fill="black"/>
</g>
<g id="Thin-M">
<path id="Vector_29" d="M829.932 1134.06H884.912C893.457 1134.06 897.949 1129.47 897.949 1121.07V1069.99C902.149 1069.85 904.639 1066.92 904.639 1062.62V1055.05C904.639 1050.61 902.002 1047.63 897.559 1047.63H817.334C812.939 1047.63 810.205 1050.61 810.205 1055.05V1062.62C810.205 1066.92 812.695 1069.85 816.894 1069.99V1121.07C816.894 1129.56 821.435 1134.06 829.932 1134.06ZM817.773 1066.48C815.234 1066.48 813.818 1064.92 813.818 1062.38V1055.3C813.818 1052.76 815.234 1051.15 817.773 1051.15H897.119C899.658 1051.15 901.025 1052.76 901.025 1055.3V1062.38C901.025 1064.92 899.658 1066.48 897.119 1066.48H817.773ZM830.029 1130.54C823.779 1130.54 820.508 1127.27 820.508 1121.07V1070.04H894.336V1121.07C894.336 1127.27 890.869 1130.54 884.814 1130.54H830.029ZM840.576 1089.13H874.316C875.977 1089.13 876.855 1088.06 876.855 1086.4V1085.08C876.855 1083.42 875.977 1082.4 874.316 1082.4H840.576C838.916 1082.4 837.988 1083.42 837.988 1085.08V1086.4C837.988 1088.06 838.916 1089.13 840.576 1089.13Z" fill="black"/>
</g>
<g id="Ultralight-M">
<path id="Vector_30" d="M533.025 1133.57H588.396C596.6 1133.57 600.945 1129.08 600.945 1121.02V1069.21H600.994C604.998 1069.21 607.488 1066.53 607.488 1062.47V1054.91C607.488 1050.85 604.998 1048.17 600.994 1048.17H520.428C516.424 1048.17 513.934 1050.85 513.934 1054.91V1062.47C513.934 1066.53 516.424 1069.21 520.428 1069.21H520.476V1121.02C520.476 1129.22 524.822 1133.57 533.025 1133.57ZM520.379 1066.82C517.84 1066.82 516.326 1065.06 516.326 1062.52V1054.86C516.326 1052.32 517.84 1050.56 520.379 1050.56H600.994C603.582 1050.56 605.095 1052.32 605.095 1054.86V1062.52C605.095 1065.06 603.582 1066.82 600.994 1066.82H520.379ZM533.123 1131.18C526.385 1131.18 522.869 1127.66 522.869 1120.87V1069.21H598.553V1120.87C598.553 1127.66 594.793 1131.18 588.25 1131.18H533.123Z" fill="black"/>
<rect id="Rectangle 3_2" x="541.35" y="1084" width="38.7" height="2.2" rx="1.1" fill="black"/>
</g>
<g id="Black-S">
<path id="Vector_31" d="M2913.45 698.93H2955.35C2964.92 698.93 2970.58 693.266 2970.58 683.695V650.736C2974 648.539 2976 644.682 2976 639.945V635.453C2976 627.885 2970.87 622.66 2963.26 622.66H2905.59C2898.02 622.66 2892.8 627.885 2892.8 635.453V639.945C2892.8 644.682 2894.85 648.49 2898.22 650.687V683.695C2898.22 693.266 2903.88 698.93 2913.45 698.93ZM2906.57 640.238C2905.59 640.238 2904.81 639.457 2904.81 638.48V636.918C2904.81 635.941 2905.59 635.16 2906.57 635.16H2962.23C2963.21 635.16 2963.99 635.941 2963.99 636.918V638.48C2963.99 639.457 2963.21 640.238 2962.23 640.238H2906.57ZM2915.7 684.769C2913.45 684.769 2912.38 683.891 2912.38 681.449V652.738H2956.42V681.449C2956.42 683.891 2955.35 684.769 2953.1 684.769H2915.7ZM2923.46 669.291H2945.38C2948.17 669.291 2950.32 667.143 2950.32 664.31V663.041C2950.32 660.209 2948.22 658.109 2945.38 658.109H2923.46C2920.63 658.109 2918.53 660.209 2918.53 663.041V664.31C2918.53 667.143 2920.68 669.291 2923.46 669.291Z" fill="black"/>
</g>
<g id="Heavy-S">
<path id="Vector_32" d="M2616.77 698.344H2658.61C2667.74 698.344 2673.07 693.07 2673.07 683.939V650.004C2676.53 648.1 2678.58 644.389 2678.58 639.75V634.965C2678.58 627.982 2673.99 623.246 2667.01 623.246H2608.37C2601.48 623.246 2596.8 627.982 2596.8 634.965V639.75C2596.8 644.389 2598.85 648.051 2602.31 649.955V683.939C2602.31 693.07 2607.64 698.344 2616.77 698.344ZM2609.59 640.336C2608.37 640.336 2607.64 639.555 2607.64 638.383V636.332C2607.64 635.111 2608.37 634.379 2609.59 634.379H2665.79C2666.96 634.379 2667.74 635.111 2667.74 636.332V638.383C2667.74 639.555 2666.96 640.336 2665.79 640.336H2609.59ZM2618.48 685.941C2616.04 685.941 2614.81 684.867 2614.81 682.279V651.42H2660.57V682.279C2660.57 684.867 2659.35 685.941 2656.9 685.941H2618.48ZM2626.39 667.728H2649.04C2651.53 667.728 2653.49 665.824 2653.49 663.236V661.967C2653.49 659.379 2651.58 657.523 2649.04 657.523H2626.39C2623.85 657.523 2621.94 659.379 2621.94 661.967V663.236C2621.94 665.824 2623.85 667.728 2626.39 667.728Z" fill="black"/>
</g>
<g id="Bold-S">
<path id="Vector_33" d="M2320.08 697.66H2361.87C2370.52 697.66 2375.45 692.826 2375.45 684.184V649.076C2379.01 647.514 2381.06 644.096 2381.06 639.506V634.379C2381.06 628.129 2377.16 623.93 2370.81 623.93H2311.14C2304.99 623.93 2300.89 628.129 2300.89 634.379V639.506C2300.89 644.047 2302.99 647.514 2306.5 649.076V684.184C2306.5 692.826 2311.43 697.66 2320.08 697.66ZM2312.56 640.434C2311.14 640.434 2310.41 639.701 2310.41 638.236V635.648C2310.41 634.184 2311.14 633.5 2312.56 633.5H2369.39C2370.81 633.5 2371.54 634.184 2371.54 635.648V638.236C2371.54 639.701 2370.81 640.434 2369.39 640.434H2312.56ZM2321.15 687.26C2318.51 687.26 2317.1 685.99 2317.1 683.256V649.955H2364.85V683.256C2364.85 685.99 2363.44 687.26 2360.8 687.26H2321.15ZM2329.26 666.019H2352.69C2354.94 666.019 2356.65 664.359 2356.65 662.016V660.746C2356.65 658.451 2354.99 656.84 2352.69 656.84H2329.26C2327.01 656.84 2325.35 658.451 2325.35 660.746V662.016C2325.35 664.359 2327.06 666.019 2329.26 666.019Z" fill="black"/>
</g>
<g id="Semibold-S">
<path id="Vector_34" d="M2023.39 697.172H2065.14C2073.49 697.172 2078.13 692.68 2078.13 684.33V648.393C2081.74 647.123 2083.79 643.852 2083.79 639.359V633.988C2083.79 628.178 2080.32 624.418 2074.46 624.418H2014.06C2008.45 624.418 2004.74 628.178 2004.74 633.988V639.359C2004.74 643.852 2006.79 647.123 2010.45 648.393V684.33C2010.45 692.68 2015.09 697.172 2023.39 697.172ZM2015.67 640.482C2014.06 640.482 2013.38 639.799 2013.38 638.187V635.209C2013.38 633.598 2014.06 632.865 2015.67 632.865H2072.9C2074.51 632.865 2075.2 633.598 2075.2 635.209V638.187C2075.2 639.799 2074.51 640.482 2072.9 640.482H2015.67ZM2024.02 688.187C2021.24 688.187 2019.73 686.771 2019.73 683.891V648.93H2068.8V683.891C2068.8 686.771 2067.29 688.187 2064.5 688.187H2024.02ZM2032.28 664.799H2056.3C2058.3 664.799 2059.86 663.334 2059.86 661.185V659.965C2059.86 657.816 2058.35 656.4 2056.3 656.4H2032.28C2030.22 656.4 2028.76 657.816 2028.76 659.965V661.185C2028.76 663.334 2030.27 664.799 2032.28 664.799Z" fill="black"/>
</g>
<g id="Medium-S">
<path id="Vector_35" d="M1726.71 696.83H1768.41C1776.51 696.83 1780.91 692.533 1780.91 684.477V647.807C1784.62 646.781 1786.67 643.656 1786.67 639.262V633.695C1786.67 628.275 1783.54 624.76 1778.03 624.76H1717.09C1711.81 624.76 1708.45 628.275 1708.45 633.695V639.262C1708.45 643.656 1710.5 646.781 1714.21 647.807V684.477C1714.21 692.533 1718.6 696.83 1726.71 696.83ZM1718.8 640.531C1717.09 640.531 1716.4 639.848 1716.4 638.09V634.818C1716.4 633.109 1717.09 632.426 1718.8 632.426H1776.37C1778.07 632.426 1778.76 633.109 1778.76 634.818V638.09C1778.76 639.848 1778.07 640.531 1776.37 640.531H1718.8ZM1727.05 688.871C1724.12 688.871 1722.51 687.309 1722.51 684.379V648.197H1772.61V684.379C1772.61 687.309 1770.99 688.871 1768.11 688.871H1727.05ZM1735.4 663.92H1759.76C1761.67 663.92 1763.08 662.553 1763.08 660.551V659.33C1763.08 657.328 1761.67 656.01 1759.76 656.01H1735.4C1733.49 656.01 1732.08 657.328 1732.08 659.33V660.551C1732.08 662.553 1733.49 663.92 1735.4 663.92Z" fill="black"/>
</g>
<g id="Regular-S">
<path id="Vector_36" d="M1429.99 696.391H1471.69C1479.4 696.391 1483.55 692.387 1483.55 684.672V647.025C1487.36 646.293 1489.41 643.412 1489.41 639.066V633.305C1489.41 628.324 1486.73 625.199 1481.7 625.199H1419.98C1415.24 625.199 1412.27 628.324 1412.27 633.305V639.066C1412.27 643.412 1414.27 646.293 1418.08 647.025V684.672C1418.08 692.387 1422.23 696.391 1429.99 696.391ZM1421.88 640.629C1419.98 640.629 1419.3 639.945 1419.3 638.041V634.379C1419.3 632.475 1419.98 631.791 1421.88 631.791H1479.84C1481.75 631.791 1482.33 632.475 1482.33 634.379V638.041C1482.33 639.945 1481.75 640.629 1479.84 640.629H1421.88ZM1429.89 689.799C1426.87 689.799 1425.11 688.09 1425.11 685.014V647.172H1476.52V685.014C1476.52 688.09 1474.81 689.799 1471.79 689.799H1429.89ZM1438.39 662.748H1463.34C1465 662.748 1466.27 661.527 1466.27 659.77V658.5C1466.27 656.742 1465 655.57 1463.34 655.57H1438.39C1436.68 655.57 1435.46 656.742 1435.46 658.5V659.77C1435.46 661.527 1436.68 662.748 1438.39 662.748Z" fill="black"/>
</g>
<g id="Light-S">
<path id="Vector_37" d="M1133.01 695.707H1175.25C1182.57 695.707 1186.48 691.898 1186.48 684.623V646.098C1190.09 645.561 1192.09 642.924 1192.09 638.92V633.109C1192.09 628.715 1189.65 625.883 1185.21 625.883H1123.05C1118.8 625.883 1116.17 628.715 1116.17 633.109V638.92C1116.17 642.924 1118.17 645.561 1121.78 646.098V684.623C1121.78 691.947 1125.69 695.707 1133.01 695.707ZM1124.37 641.068C1122.42 641.068 1121.59 640.141 1121.59 638.236V633.842C1121.59 631.889 1122.42 631.01 1124.37 631.01H1183.94C1185.89 631.01 1186.67 631.889 1186.67 633.842V638.236C1186.67 640.141 1185.89 641.068 1183.94 641.068H1124.37ZM1133.01 690.629C1129.25 690.629 1127.2 688.578 1127.2 684.818V646.147H1181.06V684.818C1181.06 688.578 1178.96 690.629 1175.25 690.629H1133.01ZM1141.36 661.479H1166.9C1168.46 661.479 1169.49 660.453 1169.49 658.842V657.67C1169.49 656.059 1168.46 655.033 1166.9 655.033H1141.36C1139.85 655.033 1138.82 656.059 1138.82 657.67V658.842C1138.82 660.453 1139.85 661.479 1141.36 661.479Z" fill="black"/>
</g>
<g id="Thin-S">
<path id="Vector_38" d="M835.963 694.877H878.883C885.67 694.877 889.283 691.264 889.283 684.525V644.779C892.652 644.584 894.606 642.24 894.606 638.773V632.865C894.606 629.203 892.457 626.762 888.795 626.762H826.051C822.486 626.762 820.24 629.203 820.24 632.865V638.773C820.24 642.24 822.193 644.584 825.563 644.779V684.525C825.563 691.313 829.176 694.877 835.963 694.877ZM826.539 641.606C824.586 641.606 823.561 640.434 823.561 638.481V633.109C823.561 631.156 824.586 629.984 826.539 629.984H888.258C890.26 629.984 891.285 631.156 891.285 633.109V638.481C891.285 640.434 890.26 641.606 888.258 641.606H826.539ZM836.012 691.703C831.324 691.703 828.834 689.213 828.834 684.574V644.828H885.963V684.574C885.963 689.213 883.375 691.703 878.834 691.703H836.012ZM844.264 659.818H870.582C871.9 659.818 872.682 658.988 872.682 657.621V656.547C872.682 655.18 871.9 654.35 870.582 654.35H844.264C842.945 654.35 842.164 655.18 842.164 656.547V657.621C842.164 658.988 842.945 659.818 844.264 659.818Z" fill="black"/>
</g>
<g id="Ultralight-S">
<path id="Vector_39" d="M539.08 694.438H582.342C588.836 694.438 592.303 690.922 592.303 684.477V644.096C595.477 644.096 597.479 641.898 597.479 638.627V632.719C597.479 629.447 595.477 627.25 592.205 627.25H529.217C525.945 627.25 523.943 629.447 523.943 632.719V638.627C523.943 641.898 525.897 644.047 529.119 644.096V684.477C529.119 690.971 532.537 694.438 539.08 694.438ZM529.314 641.947C527.313 641.947 526.141 640.58 526.141 638.578V632.768C526.141 630.766 527.313 629.447 529.314 629.447H592.107C594.109 629.447 595.281 630.766 595.281 632.768V638.578C595.281 640.58 594.109 641.947 592.107 641.947H529.314ZM539.178 692.24C534.002 692.24 531.316 689.555 531.316 684.428V644.096H590.105V684.428C590.105 689.555 587.225 692.24 582.244 692.24H539.178Z" fill="black"/>
<rect id="Rectangle 3_3" x="545.529" y="655.4" width="30.37" height="2.2" rx="1.1" fill="black"/>
</g>
</g>
</g>
</svg>
